<?xml version="1.0" encoding="UTF-8" standalone="no"?>
<!-- Created with Inkscape (http://www.inkscape.org/) -->

<svg
   version="1.1"
   id="svg2"
   xml:space="preserve"
   width="666.66663"
   height="666.66663"
   viewBox="0 0 666.66663 666.66663"
   sodipodi:docname="1b574cffe6c011c163415f7c4c08f235.ai"
   xmlns:inkscape="http://www.inkscape.org/namespaces/inkscape"
   xmlns:sodipodi="http://sodipodi.sourceforge.net/DTD/sodipodi-0.dtd"
   xmlns="http://www.w3.org/2000/svg"
   xmlns:svg="http://www.w3.org/2000/svg"><defs
     id="defs6"><clipPath
       clipPathUnits="userSpaceOnUse"
       id="clipPath16"><path
         d="M 0,500 H 500 V 0 H 0 Z"
         id="path14" /></clipPath></defs><sodipodi:namedview
     id="namedview4"
     pagecolor="#ffffff"
     bordercolor="#666666"
     borderopacity="1.0"
     inkscape:pageshadow="2"
     inkscape:pageopacity="0.0"
     inkscape:pagecheckerboard="0" /><g
     id="g8"
     inkscape:groupmode="layer"
     inkscape:label="1b574cffe6c011c163415f7c4c08f235"
     transform="matrix(1.3333333,0,0,-1.3333333,0,666.66665)"><g
       id="g10"><g
         id="g12"
         clip-path="url(#clipPath16)"><g
           id="g18"
           transform="translate(500,250)"><path
             d="m 0,0 c 0,-205.273 -44.727,-250 -250,-250 -205.273,0 -250,44.727 -250,250 0,205.273 44.727,250 250,250 C -44.727,250 0,205.273 0,0"
             style="fill:#00ad62;fill-opacity:1;fill-rule:nonzero;stroke:none"
             id="path20" /></g><g
           id="g22"
           transform="translate(205.9351,339.9707)"><path
             d="m 0,0 c -32.242,0 -47.416,-27.756 -47.416,-58.44 0,-30.684 15.174,-58.455 47.416,-58.455 32.242,0 47.416,27.771 47.416,58.455 C 47.416,-27.756 32.316,0 0,0 m 98.619,-135.149 c 0,-54.807 -30.349,-93.155 -98.619,-93.155 -91.032,0 -92.924,65.751 -92.924,65.751 h 53.095 c 0,0 1.893,-27.403 39.829,-27.403 33.75,0 45.508,18.269 45.508,51.144 v 9.134 h -1.893 c 0,0 -17.068,-25.564 -58.789,-25.564 -56.897,0 -85.338,47.481 -85.338,96.802 0,49.321 28.441,96.803 85.338,96.803 43.615,0 60.638,-31.052 60.638,-31.052 h 1.908 v 25.565 h 51.202 z"
             style="fill:#fbfbfb;fill-opacity:1;fill-rule:nonzero;stroke:none"
             id="path24" /></g><g
           id="g26"
           transform="translate(368.2422,241.3447)"><path
             d="M 0,0 C 16.684,0 30.334,-13.15 30.334,-29.213 30.334,-45.275 16.684,-58.44 0,-58.44 c -16.683,0 -30.348,13.149 -30.348,29.227 C -30.348,-13.136 -16.697,0 0,0 m 0,136.989 c 16.684,0 30.334,-13.151 30.334,-29.228 0,-16.077 -13.65,-29.227 -30.334,-29.227 -16.683,0 -30.348,13.15 -30.348,29.227 0,16.077 13.651,29.228 30.348,29.228"
             style="fill:#fbfbfb;fill-opacity:1;fill-rule:nonzero;stroke:none"
             id="path28" /></g></g></g></g></svg>
