<svg width="60" height="60" viewBox="0 0 60 60" fill="none" xmlns="http://www.w3.org/2000/svg">
<rect width="60" height="60" rx="12" fill="#032615"/>
<path d="M36.8956 35.8214C36.8956 42.3983 33.2538 47 25.0614 47C14.1376 47 13.9105 39.1099 13.9105 39.1099H20.2819C20.2819 39.1099 20.5091 42.3983 25.0614 42.3983C29.1114 42.3983 30.5224 40.206 30.5224 36.261V35.1648H30.2952C30.2952 35.1648 28.2471 38.2326 23.2405 38.2326C16.4129 38.2326 13 32.5348 13 26.6163C13 20.6978 16.4129 15 23.2405 15C28.4743 15 30.5171 18.7262 30.5171 18.7262H30.746V15.6584H36.8903L36.8956 35.8214ZM25.0614 19.6035C21.1924 19.6035 19.3715 22.9342 19.3715 26.6163C19.3715 30.2984 21.1924 33.6309 25.0614 33.6309C28.9304 33.6309 30.7513 30.2984 30.7513 26.6163C30.7513 22.9342 28.9393 19.6035 25.0614 19.6035Z" fill="#FBFBFB"/>
<path d="M44.5383 15C46.5403 15 48.1784 16.578 48.1784 18.5073C48.1784 20.4366 46.5403 22.0146 44.5383 22.0146C42.5364 22.0146 40.8965 20.4366 40.8965 18.5073C40.8965 16.578 42.5346 15 44.5383 15ZM44.5383 31.4386C46.5403 31.4386 48.1784 33.0167 48.1784 34.9442C48.1784 36.8717 46.5403 38.4515 44.5383 38.4515C42.5364 38.4515 40.8965 36.8735 40.8965 34.9442C40.8965 33.0149 42.5346 31.4386 44.5383 31.4386Z" fill="#00AD62"/>
</svg>
